<mxfile host="Electron" agent="Mozilla/5.0 (Windows NT 10.0; Win64; x64) AppleWebKit/537.36 (KHTML, like Gecko) draw.io/24.7.17 Chrome/128.0.6613.36 Electron/32.0.1 Safari/537.36" version="24.7.17">
  <diagram id="C5RBs43oDa-KdzZeNtuy" name="Page-1">
    <mxGraphModel dx="452" dy="815" grid="1" gridSize="10" guides="1" tooltips="1" connect="1" arrows="1" fold="1" page="1" pageScale="1" pageWidth="827" pageHeight="1169" math="0" shadow="0">
      <root>
        <mxCell id="WIyWlLk6GJQsqaUBKTNV-0" />
        <mxCell id="WIyWlLk6GJQsqaUBKTNV-1" parent="WIyWlLk6GJQsqaUBKTNV-0" />
        <mxCell id="iWDAd5T4ZU8lGulYz5kh-2" style="edgeStyle=orthogonalEdgeStyle;rounded=0;orthogonalLoop=1;jettySize=auto;html=1;exitX=0.5;exitY=1;exitDx=0;exitDy=0;" edge="1" parent="WIyWlLk6GJQsqaUBKTNV-1" source="iWDAd5T4ZU8lGulYz5kh-0" target="iWDAd5T4ZU8lGulYz5kh-1">
          <mxGeometry relative="1" as="geometry" />
        </mxCell>
        <mxCell id="iWDAd5T4ZU8lGulYz5kh-0" value="Начало" style="ellipse;whiteSpace=wrap;html=1;" vertex="1" parent="WIyWlLk6GJQsqaUBKTNV-1">
          <mxGeometry x="180" y="50" width="70" height="40" as="geometry" />
        </mxCell>
        <mxCell id="iWDAd5T4ZU8lGulYz5kh-6" style="edgeStyle=orthogonalEdgeStyle;rounded=0;orthogonalLoop=1;jettySize=auto;html=1;exitX=0.5;exitY=1;exitDx=0;exitDy=0;entryX=0.5;entryY=0;entryDx=0;entryDy=0;" edge="1" parent="WIyWlLk6GJQsqaUBKTNV-1" source="iWDAd5T4ZU8lGulYz5kh-1" target="iWDAd5T4ZU8lGulYz5kh-5">
          <mxGeometry relative="1" as="geometry" />
        </mxCell>
        <mxCell id="iWDAd5T4ZU8lGulYz5kh-1" value="Ввод n" style="rounded=0;whiteSpace=wrap;html=1;" vertex="1" parent="WIyWlLk6GJQsqaUBKTNV-1">
          <mxGeometry x="180" y="110" width="70" height="30" as="geometry" />
        </mxCell>
        <mxCell id="iWDAd5T4ZU8lGulYz5kh-18" style="edgeStyle=orthogonalEdgeStyle;rounded=0;orthogonalLoop=1;jettySize=auto;html=1;exitX=0;exitY=0.5;exitDx=0;exitDy=0;entryX=0.5;entryY=0;entryDx=0;entryDy=0;" edge="1" parent="WIyWlLk6GJQsqaUBKTNV-1" source="iWDAd5T4ZU8lGulYz5kh-5" target="iWDAd5T4ZU8lGulYz5kh-7">
          <mxGeometry relative="1" as="geometry" />
        </mxCell>
        <mxCell id="iWDAd5T4ZU8lGulYz5kh-19" style="edgeStyle=orthogonalEdgeStyle;rounded=0;orthogonalLoop=1;jettySize=auto;html=1;exitX=1;exitY=0.5;exitDx=0;exitDy=0;entryX=0.5;entryY=0;entryDx=0;entryDy=0;" edge="1" parent="WIyWlLk6GJQsqaUBKTNV-1" source="iWDAd5T4ZU8lGulYz5kh-5" target="iWDAd5T4ZU8lGulYz5kh-8">
          <mxGeometry relative="1" as="geometry" />
        </mxCell>
        <mxCell id="iWDAd5T4ZU8lGulYz5kh-5" value="n &amp;lt; 0" style="rhombus;whiteSpace=wrap;html=1;" vertex="1" parent="WIyWlLk6GJQsqaUBKTNV-1">
          <mxGeometry x="175" y="160" width="80" height="40" as="geometry" />
        </mxCell>
        <mxCell id="iWDAd5T4ZU8lGulYz5kh-30" style="edgeStyle=orthogonalEdgeStyle;rounded=0;orthogonalLoop=1;jettySize=auto;html=1;exitX=0.5;exitY=1;exitDx=0;exitDy=0;entryX=0.5;entryY=0;entryDx=0;entryDy=0;" edge="1" parent="WIyWlLk6GJQsqaUBKTNV-1" source="iWDAd5T4ZU8lGulYz5kh-7" target="iWDAd5T4ZU8lGulYz5kh-28">
          <mxGeometry relative="1" as="geometry">
            <mxPoint x="95" y="540" as="targetPoint" />
            <Array as="points">
              <mxPoint x="95" y="440" />
              <mxPoint x="215" y="440" />
            </Array>
          </mxGeometry>
        </mxCell>
        <mxCell id="iWDAd5T4ZU8lGulYz5kh-7" value="Сообщение&amp;nbsp;&lt;div&gt;об ошибке&lt;/div&gt;" style="rounded=0;whiteSpace=wrap;html=1;" vertex="1" parent="WIyWlLk6GJQsqaUBKTNV-1">
          <mxGeometry x="40" y="200" width="110" height="50" as="geometry" />
        </mxCell>
        <mxCell id="iWDAd5T4ZU8lGulYz5kh-20" style="edgeStyle=orthogonalEdgeStyle;rounded=0;orthogonalLoop=1;jettySize=auto;html=1;exitX=1;exitY=0.5;exitDx=0;exitDy=0;entryX=0.5;entryY=0;entryDx=0;entryDy=0;" edge="1" parent="WIyWlLk6GJQsqaUBKTNV-1" source="iWDAd5T4ZU8lGulYz5kh-8" target="iWDAd5T4ZU8lGulYz5kh-11">
          <mxGeometry relative="1" as="geometry" />
        </mxCell>
        <mxCell id="iWDAd5T4ZU8lGulYz5kh-22" style="edgeStyle=orthogonalEdgeStyle;rounded=0;orthogonalLoop=1;jettySize=auto;html=1;exitX=0;exitY=0.5;exitDx=0;exitDy=0;entryX=0.5;entryY=0;entryDx=0;entryDy=0;" edge="1" parent="WIyWlLk6GJQsqaUBKTNV-1" source="iWDAd5T4ZU8lGulYz5kh-8" target="iWDAd5T4ZU8lGulYz5kh-10">
          <mxGeometry relative="1" as="geometry" />
        </mxCell>
        <mxCell id="iWDAd5T4ZU8lGulYz5kh-8" value="n = 0" style="rhombus;whiteSpace=wrap;html=1;" vertex="1" parent="WIyWlLk6GJQsqaUBKTNV-1">
          <mxGeometry x="230" y="200" width="80" height="40" as="geometry" />
        </mxCell>
        <mxCell id="iWDAd5T4ZU8lGulYz5kh-31" style="edgeStyle=orthogonalEdgeStyle;rounded=0;orthogonalLoop=1;jettySize=auto;html=1;exitX=0.5;exitY=1;exitDx=0;exitDy=0;" edge="1" parent="WIyWlLk6GJQsqaUBKTNV-1" source="iWDAd5T4ZU8lGulYz5kh-10" target="iWDAd5T4ZU8lGulYz5kh-28">
          <mxGeometry relative="1" as="geometry">
            <mxPoint x="200" y="540" as="targetPoint" />
            <Array as="points">
              <mxPoint x="200" y="440" />
              <mxPoint x="215" y="440" />
            </Array>
          </mxGeometry>
        </mxCell>
        <mxCell id="iWDAd5T4ZU8lGulYz5kh-10" value="F(n) = 0" style="rounded=0;whiteSpace=wrap;html=1;" vertex="1" parent="WIyWlLk6GJQsqaUBKTNV-1">
          <mxGeometry x="160" y="240" width="80" height="30" as="geometry" />
        </mxCell>
        <mxCell id="iWDAd5T4ZU8lGulYz5kh-21" style="edgeStyle=orthogonalEdgeStyle;rounded=0;orthogonalLoop=1;jettySize=auto;html=1;exitX=1;exitY=0.5;exitDx=0;exitDy=0;entryX=0.5;entryY=0;entryDx=0;entryDy=0;" edge="1" parent="WIyWlLk6GJQsqaUBKTNV-1" source="iWDAd5T4ZU8lGulYz5kh-11" target="iWDAd5T4ZU8lGulYz5kh-13">
          <mxGeometry relative="1" as="geometry" />
        </mxCell>
        <mxCell id="iWDAd5T4ZU8lGulYz5kh-23" style="edgeStyle=orthogonalEdgeStyle;rounded=0;orthogonalLoop=1;jettySize=auto;html=1;exitX=0;exitY=0.5;exitDx=0;exitDy=0;entryX=0.5;entryY=0;entryDx=0;entryDy=0;" edge="1" parent="WIyWlLk6GJQsqaUBKTNV-1" source="iWDAd5T4ZU8lGulYz5kh-11" target="iWDAd5T4ZU8lGulYz5kh-12">
          <mxGeometry relative="1" as="geometry" />
        </mxCell>
        <mxCell id="iWDAd5T4ZU8lGulYz5kh-11" value="n = 1" style="rhombus;whiteSpace=wrap;html=1;" vertex="1" parent="WIyWlLk6GJQsqaUBKTNV-1">
          <mxGeometry x="290" y="235" width="80" height="40" as="geometry" />
        </mxCell>
        <mxCell id="iWDAd5T4ZU8lGulYz5kh-32" style="edgeStyle=orthogonalEdgeStyle;rounded=0;orthogonalLoop=1;jettySize=auto;html=1;exitX=0.5;exitY=1;exitDx=0;exitDy=0;" edge="1" parent="WIyWlLk6GJQsqaUBKTNV-1" source="iWDAd5T4ZU8lGulYz5kh-12" target="iWDAd5T4ZU8lGulYz5kh-28">
          <mxGeometry relative="1" as="geometry">
            <mxPoint x="270" y="540" as="targetPoint" />
          </mxGeometry>
        </mxCell>
        <mxCell id="iWDAd5T4ZU8lGulYz5kh-12" value="F(n) = 1" style="rounded=0;whiteSpace=wrap;html=1;" vertex="1" parent="WIyWlLk6GJQsqaUBKTNV-1">
          <mxGeometry x="230" y="285" width="80" height="30" as="geometry" />
        </mxCell>
        <mxCell id="iWDAd5T4ZU8lGulYz5kh-24" style="edgeStyle=orthogonalEdgeStyle;rounded=0;orthogonalLoop=1;jettySize=auto;html=1;exitX=0.5;exitY=1;exitDx=0;exitDy=0;" edge="1" parent="WIyWlLk6GJQsqaUBKTNV-1" source="iWDAd5T4ZU8lGulYz5kh-13" target="iWDAd5T4ZU8lGulYz5kh-17">
          <mxGeometry relative="1" as="geometry" />
        </mxCell>
        <mxCell id="iWDAd5T4ZU8lGulYz5kh-13" value="prev = 0,&lt;div&gt;curr = 1&lt;/div&gt;" style="rounded=0;whiteSpace=wrap;html=1;" vertex="1" parent="WIyWlLk6GJQsqaUBKTNV-1">
          <mxGeometry x="360" y="280" width="80" height="40" as="geometry" />
        </mxCell>
        <mxCell id="iWDAd5T4ZU8lGulYz5kh-26" style="edgeStyle=orthogonalEdgeStyle;rounded=0;orthogonalLoop=1;jettySize=auto;html=1;exitX=0.5;exitY=1;exitDx=0;exitDy=0;entryX=0.5;entryY=0;entryDx=0;entryDy=0;" edge="1" parent="WIyWlLk6GJQsqaUBKTNV-1" source="iWDAd5T4ZU8lGulYz5kh-17" target="iWDAd5T4ZU8lGulYz5kh-25">
          <mxGeometry relative="1" as="geometry" />
        </mxCell>
        <mxCell id="iWDAd5T4ZU8lGulYz5kh-17" value="int i = 2; i &amp;lt;= n; i++" style="shape=hexagon;perimeter=hexagonPerimeter2;whiteSpace=wrap;html=1;fixedSize=1;" vertex="1" parent="WIyWlLk6GJQsqaUBKTNV-1">
          <mxGeometry x="330" y="340" width="140" height="30" as="geometry" />
        </mxCell>
        <mxCell id="iWDAd5T4ZU8lGulYz5kh-25" value="next = prev + curr&lt;div&gt;prev = curr&lt;/div&gt;&lt;div&gt;curr = next&lt;/div&gt;" style="rounded=0;whiteSpace=wrap;html=1;" vertex="1" parent="WIyWlLk6GJQsqaUBKTNV-1">
          <mxGeometry x="340" y="390" width="120" height="60" as="geometry" />
        </mxCell>
        <mxCell id="iWDAd5T4ZU8lGulYz5kh-29" style="edgeStyle=orthogonalEdgeStyle;rounded=0;orthogonalLoop=1;jettySize=auto;html=1;exitX=0.5;exitY=1;exitDx=0;exitDy=0;entryX=0.5;entryY=0;entryDx=0;entryDy=0;" edge="1" parent="WIyWlLk6GJQsqaUBKTNV-1" source="iWDAd5T4ZU8lGulYz5kh-27" target="iWDAd5T4ZU8lGulYz5kh-28">
          <mxGeometry relative="1" as="geometry" />
        </mxCell>
        <mxCell id="iWDAd5T4ZU8lGulYz5kh-27" value="Вывод F(n) = curr" style="rounded=0;whiteSpace=wrap;html=1;" vertex="1" parent="WIyWlLk6GJQsqaUBKTNV-1">
          <mxGeometry x="340" y="470" width="120" height="40" as="geometry" />
        </mxCell>
        <mxCell id="iWDAd5T4ZU8lGulYz5kh-28" value="Конец" style="ellipse;whiteSpace=wrap;html=1;" vertex="1" parent="WIyWlLk6GJQsqaUBKTNV-1">
          <mxGeometry x="170" y="560" width="90" height="40" as="geometry" />
        </mxCell>
      </root>
    </mxGraphModel>
  </diagram>
</mxfile>
